HIERARCHY
ROOT Hips
{
	OFFSET 0.000000 89.005402 0.000000
	CHANNELS 6 Xposition Yposition Zposition Xrotation Yrotation Zrotation
	JOINT Spine
	{
		OFFSET 0.116900 10.681000 0.373400
		CHANNELS 3 Xrotation Yrotation Zrotation
		JOINT Spine1
		{
			OFFSET 0.000000 13.840401 0.053500
			CHANNELS 3 Xrotation Yrotation Zrotation
			JOINT Spine2
			{
				OFFSET 0.000000 14.712700 -0.366200
				CHANNELS 3 Xrotation Yrotation Zrotation
				JOINT Neck
				{
					OFFSET 0.000000 35.415497 -3.314200
					CHANNELS 3 Xrotation Yrotation Zrotation
					JOINT Head
					{
						OFFSET 0.000000 16.899200 1.218300
						CHANNELS 3 Xrotation Yrotation Zrotation
						JOINT HeadTop_End
						{
							OFFSET 0.000000 22.206207 2.192500
							CHANNELS 3 Xrotation Yrotation Zrotation
							End Site
							{
								OFFSET 0.000000 22.314178 0.000000
							}
						}
					}
				}
				JOINT LeftShoulder
				{
					OFFSET 12.896400 26.716293 -4.548400
					CHANNELS 3 Xrotation Yrotation Zrotation
					JOINT LeftArm
					{
						OFFSET 19.027000 -4.857010 -1.718400
						CHANNELS 3 Xrotation Yrotation Zrotation
						JOINT LeftForeArm
						{
							OFFSET 24.179897 0.000000 0.000000
							CHANNELS 3 Xrotation Yrotation Zrotation
							JOINT LeftHand
							{
								OFFSET 27.156403 0.000000 0.000000
								CHANNELS 3 Xrotation Yrotation Zrotation
								JOINT LeftHandIndex1
								{
									OFFSET 16.441200 0.000000 0.000000
									CHANNELS 3 Xrotation Yrotation Zrotation
									JOINT LeftHandIndex2
									{
										OFFSET 4.821899 0.000000 0.000000
										CHANNELS 3 Xrotation Yrotation Zrotation
										JOINT LeftHandIndex3
										{
											OFFSET 6.386497 0.000000 0.000000
											CHANNELS 3 Xrotation Yrotation Zrotation
											JOINT LeftHandIndex4
											{
												OFFSET 5.188988 0.000000 0.000000
												CHANNELS 3 Xrotation Yrotation Zrotation
												End Site
												{
													OFFSET -0.178703 5.185913 0.000177
												}
											}
										}
									}
								}
								JOINT LeftHandThumb1
								{
									OFFSET 6.534897 -5.032593 5.900300
									CHANNELS 3 Xrotation Yrotation Zrotation
									JOINT LeftHandThumb2
									{
										OFFSET 3.818176 -2.204422 2.204423
										CHANNELS 3 Xrotation Yrotation Zrotation
										JOINT LeftHandThumb3
										{
											OFFSET 3.252098 -1.877594 1.877601
											CHANNELS 3 Xrotation Yrotation Zrotation
											JOINT LeftHandThumb4
											{
												OFFSET 5.251778 -3.032120 3.032117
												CHANNELS 3 Xrotation Yrotation Zrotation
												End Site
												{
													OFFSET 0.000023 6.780014 0.000000
												}
											}
										}
									}
								}
							}
						}
					}
				}
				JOINT RightShoulder
				{
					OFFSET -12.896300 26.716293 -4.548400
					CHANNELS 3 Xrotation Yrotation Zrotation
					JOINT RightArm
					{
						OFFSET -19.027000 -4.857010 -1.718400
						CHANNELS 3 Xrotation Yrotation Zrotation
						JOINT RightForeArm
						{
							OFFSET -24.179897 0.000000 0.000000
							CHANNELS 3 Xrotation Yrotation Zrotation
							JOINT RightHand
							{
								OFFSET -27.156403 0.000000 0.000000
								CHANNELS 3 Xrotation Yrotation Zrotation
								JOINT RightHandThumb1
								{
									OFFSET -6.591202 -4.852203 5.988100
									CHANNELS 3 Xrotation Yrotation Zrotation
									JOINT RightHandThumb2
									{
										OFFSET -3.818176 -2.204422 2.204423
										CHANNELS 3 Xrotation Yrotation Zrotation
										JOINT RightHandThumb3
										{
											OFFSET -3.252098 -1.877594 1.877601
											CHANNELS 3 Xrotation Yrotation Zrotation
											JOINT RightHandThumb4
											{
												OFFSET -5.251778 -3.032120 3.032117
												CHANNELS 3 Xrotation Yrotation Zrotation
												End Site
												{
													OFFSET -0.000023 6.780014 0.000000
												}
											}
										}
									}
								}
								JOINT RightHandIndex1
								{
									OFFSET -16.029404 0.000000 0.000000
									CHANNELS 3 Xrotation Yrotation Zrotation
									JOINT RightHandIndex2
									{
										OFFSET -5.213303 0.000000 0.000000
										CHANNELS 3 Xrotation Yrotation Zrotation
										JOINT RightHandIndex3
										{
											OFFSET -6.386528 0.000000 0.000000
											CHANNELS 3 Xrotation Yrotation Zrotation
											JOINT RightHandIndex4
											{
												OFFSET -5.189026 0.000000 0.000000
												CHANNELS 3 Xrotation Yrotation Zrotation
												End Site
												{
													OFFSET 0.236702 5.183624 0.001972
												}
											}
										}
									}
								}
							}
						}
					}
				}
			}
		}
	}
	JOINT LeftUpLeg
	{
		OFFSET 14.073000 -7.904099 -1.463000
		CHANNELS 3 Xrotation Yrotation Zrotation
		JOINT LeftLeg
		{
			OFFSET -0.109806 -34.073280 4.093200
			CHANNELS 3 Xrotation Yrotation Zrotation
			JOINT LeftFoot
			{
				OFFSET 0.109806 -29.899420 -6.319000
				CHANNELS 3 Xrotation Yrotation Zrotation
				JOINT LeftToeBase
				{
					OFFSET 1.551100 -14.988700 20.535801
					CHANNELS 3 Xrotation Yrotation Zrotation
					JOINT LeftToe_End
					{
						OFFSET 0.221200 0.570800 13.248301
						CHANNELS 3 Xrotation Yrotation Zrotation
						End Site
						{
							OFFSET 0.000000 13.262435 0.000000
						}
					}
				}
			}
		}
	}
	JOINT RightUpLeg
	{
		OFFSET -13.839300 -7.904099 -1.463000
		CHANNELS 3 Xrotation Yrotation Zrotation
		JOINT RightLeg
		{
			OFFSET 0.109694 -34.073219 4.093300
			CHANNELS 3 Xrotation Yrotation Zrotation
			JOINT RightFoot
			{
				OFFSET -0.109694 -29.899384 -6.319200
				CHANNELS 3 Xrotation Yrotation Zrotation
				JOINT RightToeBase
				{
					OFFSET -1.551100 -14.988700 20.535801
					CHANNELS 3 Xrotation Yrotation Zrotation
					JOINT RightToe_End
					{
						OFFSET -0.221200 0.570900 13.248299
						CHANNELS 3 Xrotation Yrotation Zrotation
						End Site
						{
							OFFSET 0.000000 13.262440 0.000000
						}
					}
				}
			}
		}
	}
}
MOTION
Frames: 4
Frame Time: 0.033333
-15.906294 68.255783 -20.637730 27.454072 37.004879 -25.747388 22.469181 1.125268 -5.832827 9.695274 0.142877 -1.299260 9.697745 0.187710 -1.279044 -17.738230 -6.112753 3.791175 -20.272753 -24.919177 16.453340 0.000000 -0.000000 -0.000000 -9.971495 -11.618396 4.512726 -40.148904 -79.066079 -83.686708 0.000027 -83.945183 0.000003 0.331606 0.885200 27.025086 0.036725 0.711666 -5.907966 0.219163 1.726751 -14.465938 0.366787 2.221396 -18.749312 0.000000 0.000000 -0.000001 -1.665940 10.475373 7.161657 4.500558 14.758260 1.259411 0.034253 8.370842 3.195744 -0.000000 -0.000001 -0.000000 0.952691 0.093742 -5.622630 -74.182439 35.811628 37.652647 -0.000002 36.449325 -0.000001 -21.956220 1.536027 26.571753 -2.014190 -11.528560 -7.837545 5.353894 -16.615598 -0.772919 -0.558979 -7.825498 -2.926916 0.000000 -0.000000 0.000000 0.310356 -2.057983 17.149229 1.486997 -4.302193 38.119248 0.062963 -0.935462 7.699928 -0.000001 -0.000002 -0.000001 -81.818064 -0.343633 6.116111 68.234696 -9.956310 6.492870 -7.968702 -13.286014 -0.595444 -0.039996 0.000002 0.000002 -0.000000 -0.000002 -0.000000 -42.476923 -18.251164 -32.118128 61.045506 -8.843844 -12.192016 -10.406772 -4.841987 13.515527 -28.086173 -0.000001 0.000008 -0.000000 0.000000 -0.000001 
-16.582355 67.187378 -21.908600 29.412406 35.019650 -25.305982 24.672382 1.313940 -6.383740 9.620274 0.161120 -1.139469 9.621897 0.219989 -1.121437 -18.475271 -5.632320 3.332796 -24.336837 -23.819354 15.120895 -0.000000 -0.000000 -0.000000 -8.440767 -11.577919 3.625967 -1.471466 -74.147707 -48.360246 0.000137 -91.525430 0.000092 -2.717598 -0.546002 30.647568 0.030217 0.645686 -5.358439 0.210954 1.694632 -14.190970 0.361378 2.205423 -18.609467 -0.000001 0.000001 -0.000001 -1.665951 10.475372 7.161644 4.500561 14.758266 1.259412 0.034252 8.370842 3.195745 -0.000000 -0.000003 0.000000 0.875427 0.314365 -5.062876 -66.022357 24.866304 29.321968 -0.000005 43.568284 -0.000002 -21.802493 0.241725 26.010428 -2.014187 -11.528557 -7.837542 5.353893 -16.615598 -0.772917 -0.558979 -7.825495 -2.926910 -0.000000 -0.000000 0.000002 0.308809 -2.053007 17.106340 1.483123 -4.297265 38.067670 0.062777 -0.934182 7.689245 0.000001 -0.000001 -0.000003 -86.114485 2.974496 7.101336 68.442846 -9.804447 6.409874 -5.899365 -13.726735 0.797322 -0.046029 0.000014 0.000001 0.000000 -0.000000 -0.000000 -45.135085 -19.842545 -34.979359 59.220978 -6.145668 -11.598465 -17.579799 -5.249272 15.362402 -24.989432 0.000002 -0.000008 -0.000000 -0.000001 0.000002 
-17.246849 66.505508 -23.135025 30.149534 32.640415 -23.087703 27.462941 1.368445 -6.939917 9.399242 0.178085 -1.038661 9.400180 0.245128 -1.022569 -18.630661 -5.099330 3.162788 -28.577382 -22.206031 13.926810 -0.000002 0.000000 -0.000000 -7.109862 -11.183941 2.615371 4.221984 -69.074509 -44.539968 0.007215 -91.239245 0.007229 -2.608980 -0.411378 31.349882 0.029016 0.632915 -5.252118 0.209390 1.688392 -14.137759 0.360403 2.202509 -18.583956 0.000000 -0.000000 -0.000000 -1.665957 10.475372 7.161652 4.500558 14.758263 1.259412 0.034252 8.370841 3.195745 0.000000 -0.000003 -0.000000 0.818272 0.519587 -4.723460 -60.852949 12.886929 24.788821 -0.000021 56.492218 0.000027 -23.224098 -1.111697 24.494672 -2.014195 -11.528555 -7.837544 5.353892 -16.615596 -0.772919 -0.558979 -7.825496 -2.926913 0.000000 -0.000000 -0.000002 0.293350 -2.002123 16.669611 1.444031 -4.247004 37.542780 0.061003 -0.921011 7.580164 0.000002 -0.000001 0.000001 -88.724997 6.784738 9.057370 67.930398 -9.602003 5.687987 -4.176169 -14.448840 2.354331 -0.000071 0.000005 -0.000006 -0.000000 0.000000 -0.000000 -47.526584 -18.106458 -36.968467 57.969585 -4.362365 -10.926202 -21.552626 -5.777436 17.231097 -17.150318 -0.000004 0.000007 -0.000001 -0.000001 0.000000 
-17.786816 66.109932 -24.297819 30.509560 29.751194 -20.043989 29.776244 1.287257 -7.122971 9.199167 0.173950 -0.949724 9.199261 0.244116 -0.936154 -18.245443 -4.579388 3.233108 -32.994404 -20.309861 12.353149 -0.000001 -0.000001 0.000000 -6.125210 -10.542059 1.787364 -1.255137 -65.901756 -50.244832 -0.000417 -85.797169 -0.000427 -0.940242 0.379751 29.981436 0.031370 0.657866 -5.459837 0.212459 1.700543 -14.241678 0.362387 2.208452 -18.635874 0.000002 0.000001 -0.000001 -1.665947 10.475372 7.161656 4.500560 14.758261 1.259412 0.034253 8.370841 3.195744 0.000000 -0.000001 -0.000001 0.784042 0.646732 -4.905632 -58.499607 3.686899 23.594496 -0.000006 71.404396 -0.000007 -25.395454 -2.090640 22.583658 -2.014197 -11.528558 -7.837535 5.353892 -16.615596 -0.772919 -0.558979 -7.825497 -2.926914 0.000001 -0.000000 -0.000001 0.272091 -1.929764 16.050043 1.389346 -4.175097 36.798143 0.058556 -0.902304 7.425395 0.000001 -0.000003 -0.000001 -90.481613 10.458065 11.527182 67.035240 -9.259323 4.635218 -2.966938 -15.092415 3.710782 0.000032 0.000002 -0.000002 0.000000 -0.000000 -0.000000 -49.822337 -14.466991 -38.286082 56.473968 -3.712266 -10.411312 -23.198903 -5.871871 18.994539 -9.543003 -0.000001 0.000005 0.000001 0.000000 -0.000002 
